<svg width="30" height="40" viewBox="0 0 30 40" fill="none" xmlns="http://www.w3.org/2000/svg">
    <path d="M28.5174 22.6144C28.5174 29.7849 22.7046 35.5977 15.5341 35.5977C8.36358 35.5977 2.55078 29.7849 2.55078 22.6144C2.55078 15.4439 8.36358 9.6311 15.5341 9.6311C22.7046 9.6311 28.5174 15.4439 28.5174 22.6144Z" stroke="black" stroke-width="3.2"/>
    <path d="M16.1111 31.4927C13.6874 31.4927 11.7154 30.7129 10.1952 29.1535C8.67483 27.5832 7.91467 25.4877 7.91467 22.8669V22.3147C7.91467 20.5711 8.25075 19.0171 8.92275 17.6525C9.60579 16.2772 10.5532 15.2051 11.765 14.4361C12.9879 13.6564 14.3099 13.2666 15.731 13.2666C18.0555 13.2666 19.8622 14.0192 21.1512 15.5245C22.4401 17.0298 23.0846 19.1849 23.0846 21.9897V23.2406H10.9718C11.0159 24.9733 11.5281 26.3757 12.5086 27.4479C13.5001 28.5092 14.756 29.0398 16.2763 29.0398C17.356 29.0398 18.2703 28.8232 19.0195 28.39C19.7686 27.9568 20.424 27.3828 20.9859 26.6681L22.8532 28.0976C21.3549 30.361 19.1076 31.4927 16.1111 31.4927ZM15.731 15.7357C14.4972 15.7357 13.4616 16.1797 12.6243 17.0677C11.7871 17.9449 11.2692 19.1795 11.071 20.7714H20.0275V20.544C19.9393 19.0171 19.5207 17.8366 18.7716 17.0028C18.0224 16.158 17.0089 15.7357 15.731 15.7357Z" fill="black"/>
    <path d="M2.68494 4.93335C3.91886 5.93773 5.3107 6.93413 6.43494 8.05835" stroke="black" stroke-width="3.2" stroke-linecap="round"/>
    <path d="M26.0182 8.47514C27.0226 7.24115 28.019 5.84931 29.1432 4.7251" stroke="black" stroke-width="3.2" stroke-linecap="round"/>
    <path d="M16.2266 1.6001V5.9751" stroke="black" stroke-width="3.2" stroke-linecap="round"/>
</svg>
