<svg width="364" height="284" viewBox="0 0 364 284" fill="none" xmlns="http://www.w3.org/2000/svg">
    <path d="M314.851 0H47.3047V274.242H314.851V0Z" fill="#00CD99"/>
    <path d="M330.652 259.229H31.5049V274.242H330.652V259.229Z" fill="#00CD99"/>
    <path d="M299.051 15.0134H63.1045V259.229H299.051V15.0134Z" fill="#F5EBDD"/>
    <path d="M310.638 104.593H51.5181V119.606H310.638V104.593Z" fill="#00CD99"/>
    <path d="M156.865 90.4963L162.646 105.539L98.8271 127.682C96.7278 128.411 94.4099 128.317 92.3834 127.421C90.3569 126.526 88.7878 124.902 88.0212 122.907C87.2546 120.913 87.3534 118.71 88.2958 116.785C89.2382 114.859 90.947 113.368 93.0463 112.64L156.865 90.4963Z" fill="#30242A"/>
    <path d="M106.503 107.971L112.284 123.013L98.8279 127.682C96.7286 128.411 94.4108 128.317 92.3843 127.421C90.3578 126.526 88.7887 124.902 88.0221 122.907C87.2555 120.913 87.3543 118.71 88.2967 116.785C89.2391 114.859 90.9479 113.368 93.0472 112.64L106.503 107.971Z" fill="#30242A"/>
    <path d="M169.176 112.269C179.356 112.269 187.609 104.427 187.609 94.7538C187.609 85.0802 179.356 77.2383 169.176 77.2383C158.995 77.2383 150.742 85.0802 150.742 94.7538C150.742 104.427 158.995 112.269 169.176 112.269Z" fill="#624ECE"/>
    <path d="M88.2213 122.788C66.1013 130.295 38.3828 141.385 20.2813 119.786C-2.36544 92.7619 41.8746 64.7371 53.988 100.269C67.6497 140.344 -15.8903 168.544 5.53457 204.861C25.0213 237.89 86.3675 202.299 121.928 214.369C151.421 224.378 152.19 258.533 152.19 258.533" stroke="#30242A" stroke-width="4" stroke-miterlimit="10" stroke-linecap="round"/>
    <path d="M147.899 93.5827C146.845 87.5773 142.632 83.0734 139.999 82.4778C133.715 81.0666 130.245 86.4814 130.245 86.4814C130.245 86.4814 125.273 82.1525 118.321 87.9577C118.321 87.9577 110.358 85.5956 106.919 92.3916C106.919 92.3916 103.379 91.1205 99.4504 98.0766C96.2535 103.747 93.6571 112.239 97.3437 114.591C98.9237 115.592 103.664 115.092 105.244 111.589C105.244 111.589 106.666 114.091 109.457 113.59C115.25 112.589 115.777 108.085 115.777 108.085C115.777 108.085 116.267 109.782 119.464 110.087C124.646 110.588 127.364 105.583 127.364 105.583C127.364 105.583 129.328 106.829 133.157 105.583C138.271 103.917 139.593 96.6454 139.593 96.6454L147.899 93.5827Z" fill="#A15842"/>
    <path d="M347.319 175.145C356.134 166.416 354.707 151.523 344.132 141.88C333.556 132.237 317.837 131.496 309.022 140.224C300.207 148.953 301.634 163.846 312.209 173.489C322.785 183.132 338.504 183.873 347.319 175.145Z" fill="#30242A"/>
    <path d="M301.158 160.642C301.158 160.642 319.592 149.632 322.225 129.615" stroke="black" stroke-width="4" stroke-linecap="round" stroke-linejoin="round"/>
    <path d="M245.364 144.289C249.791 131.012 243.541 117.287 231.404 113.634C219.267 109.98 205.84 117.78 201.413 131.057C196.986 144.334 203.236 158.059 215.373 161.713C227.509 165.366 240.937 157.566 245.364 144.289Z" fill="#30242A"/>
    <path d="M317.016 136.731C316.536 135.144 345.535 152.119 339.662 157.749C334.122 163.034 319.428 144.748 317.016 136.731Z" fill="#624ECE"/>
    <path d="M317.248 137.717C316.3 135.78 341.301 111.524 345.488 118.285C349.512 124.79 318.196 139.648 317.248 137.717Z" fill="#624ECE"/>
    <path d="M288.518 141.125C281.671 139.123 266.925 138.122 258.498 137.121C240.591 128.113 245.331 104.592 245.331 104.592C246.385 104.092 263.528 101.134 261.163 88.413C259.056 76.9029 244.799 76.9029 236.973 85.03C236.973 85.03 225.845 80.5711 222.685 66.0583C222.685 66.0583 213.289 67.0842 206.774 65.4478C205.357 71.398 205.004 77.9188 203.725 84.5747C203.725 84.5747 196.878 85.0751 196.351 87.5773C195.825 90.2196 201.239 93.3424 201.239 93.3424C197.552 106.064 198.079 117.594 206.358 122.108C213.731 126.111 222.685 124.61 222.685 124.61L221.631 136.621C212.408 136.952 203.318 138.815 194.771 142.126C177.291 148.891 136.311 174.654 136.311 174.654C139.471 164.645 152.432 133.078 157.378 113.1C159.484 104.592 161.591 96.5853 156.324 96.0848C150.563 95.5343 142.104 112.599 142.104 112.599L106.291 125.11C85.177 152.249 60.4711 213.689 92.5978 229.202C121.564 243.215 186.345 209.185 186.345 209.185L180.551 259.229H285.885L309.585 152.635C309.585 152.635 309.685 152.535 309.864 152.34C302.459 146.254 293.542 142.591 288.518 141.125Z" fill="#A15842"/>
    <path d="M274.825 131.296H222.1L221.632 136.621C217.524 136.731 213.435 137.186 209.413 137.982C208.07 138.237 206.648 138.537 205.168 138.893C201.628 139.742 198.155 140.822 194.772 142.125C194.029 142.411 193.234 142.741 192.407 143.091C190.879 143.752 189.247 144.513 187.461 145.358C175.58 151.088 159.243 160.677 148.251 167.318L162.524 194.437L169.686 208.049L173.505 215.3C181.341 211.797 186.345 209.185 186.345 209.185L180.551 259.229H285.885L309.585 152.635C310.849 151.295 312.019 149.877 313.087 148.391V148.246L274.825 131.296Z" fill="#F9ED90"/>
    <path d="M199.669 145.464L192.407 143.091C190.879 143.752 189.247 144.513 187.461 145.358L193.413 154.612L181.589 169.935L197.178 163.81L205.863 179.028L206.853 162.273L221.905 159.211L209.002 151.549L209.413 137.982C208.07 138.237 206.648 138.537 205.168 138.893L199.669 145.464Z" fill="#F47865"/>
    <path d="M173.347 202.959L186.24 201.133L186.382 197.479L179.709 194.582L185.218 178.988L170.508 188.181L161.26 178.172L162.597 194.412L162.524 194.437L169.686 208.049L173.347 202.959Z" fill="#F47865"/>
    <path d="M254.564 161.097L260.479 179.994L266.388 161.097L285.206 155.988L266.925 148.836V132.492L256.713 145.258L242.198 138.617L250.798 152.41L237.363 163.139L254.564 161.097Z" fill="#F47865"/>
    <path d="M236.657 255.111L225.587 239.552L235.093 225.93L219.156 231.205L210.919 218.048L210.066 234.062L192.628 235.944L208.149 243.275L203.019 259.23H205.737L218.008 249.486L236.657 255.111Z" fill="#F47865"/>
    <path d="M242.051 223.543L254.949 212.818L269.464 222.011L263.012 206.688L274.304 194.942L258.177 197.495L250.651 184.723L249.034 198.516L233.987 198.005L246.885 207.198L242.051 223.543Z" fill="#F47865"/>
    <path d="M222.685 66.0582C225.845 80.571 236.973 85.03 236.973 85.03C244.8 76.9178 259.03 76.9178 261.163 88.413C263.528 101.134 246.385 104.092 245.332 104.592C245.332 104.592 240.592 128.113 258.498 137.121C266.925 138.122 281.672 139.123 288.518 141.125C293.543 142.591 302.459 146.254 309.864 152.339C312.498 149.517 332.543 126.582 313.798 104.092C300.785 88.468 279.397 91.1454 279.397 91.1454C280.108 83.0282 281.503 62.0697 263.033 49.2233C244.563 36.377 221.047 43.138 212.51 53.2819C209.46 56.9001 207.822 61.0188 206.774 65.4477C213.289 67.0841 222.685 66.0582 222.685 66.0582Z" fill="#30242A"/>
    <path d="M141.13 112.209C140.382 113.851 139.614 115.712 138.945 117.604C138.945 117.604 126.831 120.106 123.571 127.863" stroke="#30242A" stroke-width="4" stroke-miterlimit="10" stroke-linecap="round"/>
    <path d="M137.828 173.664L131.571 189.237" stroke="#30242A" stroke-width="4" stroke-linecap="round" stroke-linejoin="round"/>
    <path d="M187.398 190.668L185.207 209.395" stroke="#724342" stroke-width="4" stroke-linecap="round" stroke-linejoin="round"/>
    <path d="M220.578 126.111C225.421 125.387 230.145 124.072 234.634 122.198" stroke="#30242A" stroke-width="4" stroke-miterlimit="10" stroke-linecap="round"/>
    <path d="M244.115 93.7628L250.961 89.7593" stroke="#30242A" stroke-width="4" stroke-miterlimit="10" stroke-linecap="round"/>
    <path d="M280.197 90.9353C279.807 94.6436 279.28 99.2827 278.77 102.946" stroke="black" stroke-width="4" stroke-miterlimit="10" stroke-linecap="round"/>
    <path d="M241.592 99.8481L239.675 110.918C239.591 111.404 239.639 111.903 239.816 112.367C239.993 112.83 240.292 113.242 240.685 113.564C241.078 113.886 241.551 114.107 242.059 114.205C242.568 114.304 243.094 114.276 243.588 114.126L253.848 110.998C254.342 110.847 254.787 110.578 255.141 110.217C255.494 109.856 255.744 109.415 255.866 108.935C255.988 108.456 255.978 107.955 255.838 107.48C255.698 107.005 255.431 106.573 255.064 106.224L246.748 98.2667C246.354 97.885 245.856 97.6151 245.31 97.4873C244.764 97.3595 244.191 97.3787 243.656 97.5429C243.12 97.7071 242.644 98.0098 242.279 98.4169C241.915 98.8241 241.677 99.3196 241.592 99.8481Z" fill="#F4E6D8"/>
    <path d="M216.96 97.0557C216.481 103.672 209.307 104.122 207.622 99.4228L216.96 97.0557Z" stroke="#30242A" stroke-width="4" stroke-linecap="round" stroke-linejoin="round"/>
    <path d="M218.118 84.85C216.844 85.4455 212.294 85.5706 210.819 82.1125" stroke="#30242A" stroke-width="4" stroke-linecap="round" stroke-linejoin="round"/>
    <path d="M288.518 141.125L288.355 221.876C288.355 221.876 236.584 192.425 232.581 192.19C229.637 192.015 227.446 198.351 232.76 203.585C218.435 201.058 204.199 199.732 201.96 203.875C200.612 206.378 202.808 208.98 202.808 208.98C201.091 209.185 199.417 209.616 198.458 210.686C196.157 213.254 199.317 217.192 199.317 217.192C196.399 218.528 197.405 222.697 200.038 224.699C206.479 229.588 225.776 233.081 225.776 233.081C218.835 233.887 205.479 234.638 206.195 238.391C207.248 243.896 236.742 243.896 236.742 243.896C247.802 250.902 256.918 250.722 256.918 250.722C256.918 250.722 283.926 277.065 311.165 283.251C381.212 294.761 326.438 170.151 311.692 154.136C302.538 144.193 288.518 141.125 288.518 141.125Z" fill="#A15842"/>
    <path d="M221.51 234.222C225.197 234.187 229.189 234.172 233.218 234.222" stroke="#30242A" stroke-width="4" stroke-linecap="round" stroke-linejoin="round"/>
    <path d="M198.822 218.328C207.438 219.829 222.659 222.597 233.761 225.199" stroke="#30242A" stroke-width="4" stroke-linecap="round" stroke-linejoin="round"/>
    <path d="M202.287 209.22C212.962 210.606 228.288 212.723 237.958 214.69" stroke="#30242A" stroke-width="4" stroke-linecap="round" stroke-linejoin="round"/>
    <path d="M233.902 202.994C237.778 203.83 241.595 204.895 245.331 206.182" stroke="#30242A" stroke-width="4" stroke-linecap="round" stroke-linejoin="round"/>
    <path d="M319.56 176.286L318.57 193.041L309.885 177.837L294.296 183.963L306.119 168.639L297.013 154.477L312.376 159.481L314.162 157.319C313.405 156.208 312.573 155.145 311.67 154.136C302.517 144.193 288.497 141.125 288.497 141.125L288.376 201.128L293.042 205.477L305.94 192.055L299.42 210.491L300.563 211.292L336.102 204.036C332.715 194.27 328.766 184.689 324.274 175.335L319.56 176.286Z" fill="#F9ED90"/>
    <path d="M297.013 154.461L306.12 168.624L294.296 183.947L309.885 177.822L318.57 193.04L319.56 176.285L324.3 175.33C320.582 167.643 317.022 161.347 314.209 157.314L312.403 159.471L297.013 154.461Z" fill="#F47865"/>
    <path d="M299.441 210.491L305.961 192.05L293.063 205.477L288.397 201.128L288.371 213.789L300.584 211.292L299.441 210.491Z" fill="#F47865"/>
    <path d="M287.302 189.938V220.01" stroke="#724342" stroke-width="4" stroke-linecap="round" stroke-linejoin="round"/>
    <path d="M287.096 220.009C287.096 220.009 297.308 225.879 313.108 234.887" stroke="#30242A" stroke-width="4" stroke-linecap="round" stroke-linejoin="round"/>
    <path d="M105.786 92.8269C104.353 97.8764 103.079 104.988 104.158 112.284" stroke="#30242A" stroke-width="4" stroke-miterlimit="10" stroke-linecap="round"/>
    <path d="M116.946 88.313C115.561 92.2665 114.096 99.0925 114.96 109.232" stroke="#30242A" stroke-width="4" stroke-miterlimit="10" stroke-linecap="round"/>
    <path d="M129.096 86.3916C127.59 90.5903 125.572 97.1811 126.431 105.599" stroke="#30242A" stroke-width="4" stroke-miterlimit="10" stroke-linecap="round"/>
    <path d="M141.119 90.4299C141.119 90.4299 140.967 93.5327 140.708 96.9357" stroke="#30242A" stroke-width="4" stroke-miterlimit="10" stroke-linecap="round"/>
</svg>
