<svg width="125" height="50" viewBox="0 0 125 50" fill="none" xmlns="http://www.w3.org/2000/svg">
    <path d="M55.6468 28.2679C55.6468 37.2311 48.3808 44.4971 39.4176 44.4971C30.4545 44.4971 23.1885 37.2311 23.1885 28.2679C23.1885 19.3048 30.4545 12.0388 39.4176 12.0388C48.3808 12.0388 55.6468 19.3048 55.6468 28.2679Z" stroke="black" stroke-width="4"/>
    <path d="M18.8797 29.0599C18.8797 32.4035 18.1016 35.0974 16.5455 37.1414C14.9894 39.1855 12.8825 40.2076 10.2248 40.2076C7.51194 40.2076 5.37747 39.3615 3.82138 37.6694V48.2485H0V17.831H3.49088L3.67679 20.2677C5.23288 18.3725 7.39489 17.4249 10.1628 17.4249C12.8481 17.4249 14.9688 18.4199 16.5249 20.4098C18.0948 22.3997 18.8797 25.168 18.8797 28.7147V29.0599ZM15.0583 28.6335C15.0583 26.1562 14.5212 24.2001 13.4471 22.7652C12.373 21.3303 10.8995 20.6128 9.02672 20.6128C6.71324 20.6128 4.97812 21.6213 3.82138 23.6384V34.1362C4.96435 36.1397 6.71323 37.1414 9.06803 37.1414C10.8995 37.1414 12.3524 36.4307 13.4265 35.0094C14.5144 33.5745 15.0583 31.4492 15.0583 28.6335Z" fill="black"/>
    <path d="M40.1388 39.3659C37.1092 39.3659 34.6442 38.3912 32.7439 36.4419C30.8435 34.4791 29.8933 31.8597 29.8933 28.5837V27.8934C29.8933 25.7139 30.3134 23.7714 31.1534 22.0657C32.0072 20.3465 33.1914 19.0064 34.7062 18.0452C36.2348 17.0706 37.8873 16.5833 39.6637 16.5833C42.5693 16.5833 44.8277 17.5241 46.4389 19.4057C48.0501 21.2873 48.8557 23.9812 48.8557 27.4872V29.0508H33.7147C33.7698 31.2167 34.4101 32.9697 35.6357 34.3099C36.8751 35.6365 38.445 36.2998 40.3453 36.2998C41.6949 36.2998 42.8378 36.0291 43.7743 35.4876C44.7107 34.9461 45.53 34.2286 46.2323 33.3352L48.5665 35.1221C46.6936 37.9513 43.8844 39.3659 40.1388 39.3659ZM39.6637 19.6697C38.1214 19.6697 36.8269 20.2247 35.7803 21.3347C34.7338 22.4312 34.0865 23.9744 33.8387 25.9643H45.0343V25.6801C44.9241 23.7714 44.4008 22.2958 43.4644 21.2535C42.528 20.1976 41.2611 19.6697 39.6637 19.6697Z" fill="black"/>
    <path d="M65.3245 18.296L65.4484 21.0575C67.156 18.9458 69.3869 17.8899 72.141 17.8899C76.8644 17.8899 79.2467 20.5093 79.288 25.7481V40.2664H75.4666V25.7278C75.4529 24.1439 75.0811 22.973 74.3512 22.2149C73.6351 21.4569 72.5128 21.0778 70.9843 21.0778C69.7449 21.0778 68.657 21.4027 67.7206 22.0525C66.7842 22.7023 66.0544 23.5551 65.5311 24.611V40.2664H61.7097V18.296H65.3245Z" fill="black"/>
    <path d="M88.6659 18.7315L88.7898 21.4931C90.4974 19.3813 92.7283 18.3254 95.4824 18.3254C100.206 18.3254 102.588 20.9448 102.629 26.1836V40.702H98.8081V26.1633C98.7943 24.5795 98.4225 23.4085 97.6926 22.6505C96.9765 21.8924 95.8542 21.5134 94.3257 21.5134C93.0863 21.5134 91.9984 21.8382 91.062 22.488C90.1256 23.1378 89.3958 23.9906 88.8725 25.0465V40.702H85.0511V18.7315H88.6659Z" fill="black"/>
    <path d="M115.705 35.1992L120.91 18.7315H125L116.015 44.093C114.624 47.7479 112.414 49.5754 109.384 49.5754L108.661 49.5145L107.236 49.2505V46.2047L108.269 46.2859C109.563 46.2859 110.568 46.0287 111.284 45.5143C112.014 44.9999 112.613 44.0591 113.081 42.6919L113.928 40.4583L105.955 18.7315H110.128L115.705 35.1992Z" fill="black"/>
    <path d="M23.3562 6.16675C24.8986 7.42223 26.6384 8.66773 28.0437 10.073" stroke="black" stroke-width="4" stroke-linecap="round"/>
    <path d="M52.5227 10.5938C53.7782 9.05131 55.0237 7.31151 56.429 5.90625" stroke="black" stroke-width="4" stroke-linecap="round"/>
    <path d="M40.2832 2V7.46875" stroke="black" stroke-width="4" stroke-linecap="round"/>
</svg>