<svg width="287" height="328" viewBox="0 0 287 328" fill="none" xmlns="http://www.w3.org/2000/svg">
    <path d="M272.256 46.7651H32.166V292.864H272.256V46.7651Z" fill="#FFB7D5"/>
    <path d="M286.435 279.391H17.9873V292.864H286.435V279.391Z" fill="#FFB7D5"/>
    <path d="M258.077 60.2373H46.3442V279.391H258.077V60.2373Z" fill="#F5EBDD"/>
    <path d="M268.475 140.624H35.9468V154.096H268.475V140.624Z" fill="#FFB7D5"/>
    <path d="M86.2616 160.945C86.2616 160.945 96.9665 161.506 104.949 157.24C112.511 153.198 113.73 146.866 111.093 134.337C111.093 134.337 115.819 131.642 115.347 128.948C115.039 127.174 109.675 125.355 109.675 125.355C109.004 121.933 108.153 116.759 106.773 111.469C103.321 112.114 99.8136 112.457 96.2953 112.493C85.7465 123.77 74.2288 124.457 74.2288 124.457C72.5608 122.089 70.2981 120.153 67.6452 118.825L51.9117 124.785C51.7618 125.268 51.6387 125.758 51.5431 126.253C49.3548 138.042 64.7764 142.42 64.7764 142.42C61.6666 153.71 51.5431 158.138 43.9434 159.876L44.5861 165.485H87.0556L86.2616 160.945Z" fill="#EAA58B"/>
    <path d="M187.984 250.362C224.848 240.033 227.211 157.402 227.211 157.402L207.98 133.888C207.98 133.888 211.615 116.984 207.834 113.84C203.268 110.046 197.516 121.924 191.292 136.744C184.751 152.314 172.534 198.107 171.589 201.25C171.589 201.25 162.42 197.155 151.554 192.394L150.013 197.209L135.996 242.113C151.365 248.09 173.148 254.521 187.984 250.362Z" fill="#EAA58B"/>
    <path d="M64.7764 142.42C64.7764 142.42 49.3548 138.041 51.543 126.253C51.6387 125.757 51.7617 125.267 51.9117 124.784L40.4507 129.109C40.4507 129.419 40.5027 129.711 40.5263 130.007L43.9433 159.876C51.5572 158.138 61.6665 153.71 64.7764 142.42Z" fill="#A15842"/>
    <path d="M74.2291 124.457C74.2291 124.457 85.7468 123.769 96.2957 112.493C99.8139 112.457 103.321 112.114 106.774 111.469C106.188 109.224 105.502 106.956 104.689 104.787L67.6455 118.825C70.2984 120.153 72.5611 122.089 74.2291 124.457Z" fill="#A15842"/>
    <path d="M51.9116 124.784L67.6451 118.825C61.1466 115.69 54.0148 117.976 51.9116 124.784Z" fill="#30242A"/>
    <path d="M67.6454 118.825L104.689 104.787C103.399 101.333 101.792 98.1401 99.7504 95.7151C91.8387 86.3157 72.4141 79.4941 55.2675 91.3994C38.7589 102.865 39.7656 121.084 40.4509 129.123L51.9119 124.78C54.0151 117.976 61.1469 115.69 67.6454 118.825Z" fill="#30242A"/>
    <path d="M111.807 185.245L110.682 176.002C97.666 172.396 88.2609 172.221 88.2609 172.221L87.0794 165.485H44.5862L45.2526 171.323C41.0418 171.311 36.8382 171.652 32.6904 172.342L38.636 185.245H111.807Z" fill="#00CD99"/>
    <path d="M51.0043 212.19H115.091L113.451 198.717H44.813L51.0043 212.19Z" fill="#00CD99"/>
    <path d="M57.2007 225.663L63.392 239.135H118.272L117.71 234.034L117.757 234.056L116.732 225.663H57.2007Z" fill="#00CD99"/>
    <path d="M73.7565 259.631C73.7565 259.631 104.557 261.58 121.018 264.122L119.752 252.607H70.415L73.7565 259.631Z" fill="#00CD99"/>
    <path d="M113.451 198.717L111.807 185.245H38.6216L44.8129 198.717H113.451Z" fill="#9769F8"/>
    <path d="M51.0044 212.19L57.2004 225.663H116.731L115.091 212.19H51.0044Z" fill="#9769F8"/>
    <path d="M64.7766 240.769L70.4149 252.607H119.752L118.272 239.135H63.9731L64.7766 240.769Z" fill="#9769F8"/>
    <path d="M151.521 192.377C146.152 190.023 140.372 187.491 135.083 185.245C130.447 183.26 126.184 181.464 122.909 180.144C118.923 178.534 114.841 177.151 110.682 176.003L111.807 185.245L113.452 198.718L115.092 212.19L116.732 225.663L117.757 234.056C118.23 234.29 122.394 236.423 128.703 239.135C130.802 240.034 133.136 241.004 135.646 241.983L135.986 242.113L150.013 197.204L151.554 192.39L151.521 192.377Z" fill="#00CD99"/>
    <path d="M70.4148 252.607L64.7764 240.769L63.973 239.135H63.3917L64.6299 241.829L18.5732 257.745C26.3336 272.43 35.1149 285.031 41.6181 291.067C64.3038 312.174 123.712 299.025 123.712 299.025C123.712 299.025 130.47 304.09 139.45 305.887C155.519 335.976 164.357 325.521 164.357 325.521C164.357 325.521 170.029 331.359 174.282 325.072C182.789 325.521 182.317 320.581 174.755 303.516C183.262 313.396 191.731 313.553 191.911 310.827C192.384 303.641 171.116 279.84 151.597 272.08C139.857 267.414 121.018 264.122 121.018 264.122C104.557 261.603 73.7562 259.631 73.7562 259.631L70.4148 252.607Z" fill="#EAA58B"/>
    <path d="M32.6905 172.343C23.9235 173.771 12.6799 177.161 6.18609 185.245C3.29838 188.838 1.34647 193.329 0.987279 199.005C-0.0855658 215.356 8.34596 238.363 18.5876 257.745L64.6301 241.83L32.6905 172.343Z" fill="#00CD99"/>
    <path d="M78.3408 166.096L79.286 174.018" stroke="#30242A" stroke-width="4" stroke-linecap="round" stroke-linejoin="round"/>
    <path d="M70.3062 166.096L71.2514 174.018" stroke="#30242A" stroke-width="4" stroke-linecap="round" stroke-linejoin="round"/>
    <path d="M86.2905 161.892C83.2034 161.674 80.1858 160.912 77.3911 159.647" stroke="#A15842" stroke-width="4" stroke-miterlimit="10" stroke-linecap="round"/>
    <path d="M175.776 303.291C173.956 299.456 171.872 295.298 169.996 292.145" stroke="#A15842" stroke-width="4" stroke-miterlimit="10" stroke-linecap="round"/>
    <path d="M161.12 296.618C167.023 306.471 171.583 317.564 174.353 325.05" stroke="#A15842" stroke-width="4" stroke-miterlimit="10" stroke-linecap="round"/>
    <path d="M150.646 302.456C154.9 309.87 159.735 318.816 163.223 325.481" stroke="#A15842" stroke-width="4" stroke-miterlimit="10" stroke-linecap="round"/>
    <path d="M118.324 233.867L116.618 217.13" stroke="#30242A" stroke-width="4" stroke-linecap="round" stroke-linejoin="round"/>
    <path d="M170.52 201.07L167.335 212.926" stroke="#A15842" stroke-width="4" stroke-miterlimit="10" stroke-linecap="round"/>
    <path d="M45.0591 170.425H50.9243" stroke="#30242A" stroke-width="4" stroke-linecap="round" stroke-linejoin="round"/>
    <path d="M89.2676 172.267L90.1561 177.323" stroke="#30242A" stroke-width="4" stroke-linecap="round" stroke-linejoin="round"/>
    <path d="M99.4196 94.6509L39.8696 116.207" stroke="#00CD99" stroke-width="4" stroke-miterlimit="10" stroke-linecap="round"/>
    <path d="M72.9528 258.567L60.0503 257.835" stroke="#A15842" stroke-width="4" stroke-miterlimit="10" stroke-linecap="round"/>
    <path d="M73.4256 259.016L55.6504 221.621" stroke="#30242A" stroke-width="4" stroke-linecap="round" stroke-linejoin="round"/>
    <path d="M209.601 129.962C208.514 134.036 206.992 139.393 205.471 143.48C205.471 143.48 213.505 156.952 204.998 172.67" stroke="#A15842" stroke-width="4" stroke-miterlimit="10" stroke-linecap="round"/>
    <path d="M228.587 262.829H208.08C207.939 262.829 207.805 262.776 207.705 262.681C207.606 262.587 207.55 262.459 207.55 262.326V248.045C207.55 247.911 207.606 247.783 207.705 247.689C207.805 247.595 207.939 247.542 208.08 247.542H228.587C230.717 247.542 232.761 248.346 234.268 249.778C235.775 251.21 236.621 253.151 236.621 255.176C236.624 256.18 236.418 257.175 236.015 258.103C235.612 259.032 235.021 259.875 234.275 260.586C233.528 261.297 232.642 261.861 231.666 262.246C230.69 262.631 229.643 262.829 228.587 262.829V262.829Z" stroke="#A15842" stroke-width="8" stroke-miterlimit="10"/>
    <path d="M201.954 245.216C185.03 245.216 177.203 232.399 177.203 232.399L188.584 279.432H215.325L226.701 232.399C224.059 236.355 220.402 239.607 216.073 241.85C211.743 244.092 206.885 245.25 201.954 245.216Z" fill="#F47865"/>
    <path d="M201.954 245.216C206.885 245.25 211.743 244.092 216.073 241.85C220.402 239.607 224.059 236.355 226.701 232.399H177.203C177.203 232.399 185.03 245.216 201.954 245.216Z" fill="#A15842"/>
    <path d="M67.9384 132.702L60.8491 127.762" stroke="#A15842" stroke-width="4" stroke-miterlimit="10" stroke-linecap="round"/>
    <path d="M101.343 127.16C102.426 127.16 103.305 126.326 103.305 125.296C103.305 124.267 102.426 123.433 101.343 123.433C100.26 123.433 99.3818 124.267 99.3818 125.296C99.3818 126.326 100.26 127.16 101.343 127.16Z" fill="#30242A"/>
    <path d="M27.5483 133.268L117.606 100.821" stroke="#30242A" stroke-width="4" stroke-linecap="round" stroke-linejoin="round"/>
    <path d="M99.4575 137.987C99.9301 138.885 102.563 140.951 105.105 139.546" stroke="#A15842" stroke-width="4" stroke-miterlimit="10" stroke-linecap="round"/>
    <path d="M225.689 173.146C224.546 172.05 223.667 170.2 223.903 167.281C223.903 167.281 219.649 169.527 216.814 167.281C213.089 164.331 214.45 160.096 214.45 160.096C214.45 160.096 210.197 161.443 208.306 158.299C206.255 154.891 208.779 150.216 208.779 150.216C208.779 150.216 205.381 150.665 204.525 147.521C203.438 143.542 205.712 139.923 208.103 137.305" stroke="#A15842" stroke-width="8" stroke-miterlimit="10" stroke-linecap="round"/>
    <path d="M151.537 89.0307L218.582 64.8306C223.16 63.1783 225.461 58.3128 223.722 53.9631L205.298 7.87567C203.559 3.52601 198.438 1.33934 193.861 2.99163L126.815 27.1917C122.238 28.844 119.936 33.7095 121.675 38.0592L140.1 84.1466C141.838 88.4963 146.959 90.6829 151.537 89.0307Z" fill="#30242A"/>
    <path d="M230.644 200.227C231.385 202.082 233.569 203.015 235.521 202.31C237.473 201.605 238.455 199.531 237.713 197.676L188.824 75.3831C188.083 73.5283 185.899 72.5958 183.947 73.3004C181.995 74.005 181.013 76.0798 181.755 77.9347L230.644 200.227Z" fill="#30242A"/>
    <path d="M180.625 31.7115C178.453 30.8262 175.999 30.7962 173.804 31.6281C171.608 32.4599 169.849 34.0857 168.914 36.1485L167.883 38.4298L165.482 37.4463C163.318 36.5935 160.887 36.5846 158.716 37.4218C156.545 38.2589 154.808 39.8747 153.881 41.9195C152.954 43.9643 152.912 46.2736 153.764 48.3478C154.615 50.422 156.292 52.0942 158.431 53.0026L160.832 53.9861L177.199 60.6865L184.255 45.1302L185.285 42.8533C185.751 41.8312 186 40.7318 186.018 39.6182C186.035 38.5045 185.822 37.3985 185.389 36.3634C184.956 35.3284 184.312 34.3847 183.495 33.5864C182.677 32.7881 181.702 32.151 180.625 31.7115Z" fill="#F47865"/>
    <path d="M221.204 129.163C225.604 131.674 224.659 136.537 224.659 136.537C224.659 136.537 233.511 135.383 233.251 143.983C233.251 143.983 240.307 147.064 237.07 153.769C237.07 153.769 241.924 154.972 239.499 162.342C237.136 169.527 232.301 174.058 229.101 174.467C227.409 174.682 223.43 173.12 223.903 167.282C223.903 167.282 219.649 169.527 216.813 167.282C213.089 164.331 214.45 160.096 214.45 160.096C214.45 160.096 210.197 161.443 208.306 158.3C206.255 154.891 208.779 150.216 208.779 150.216C208.779 150.216 205.381 150.665 204.525 147.522C202.71 140.889 210.239 135.257 212.087 133.6L210.669 130.007C210.669 130.007 216.813 126.657 221.204 129.163Z" fill="#EAA58B"/>
    <path d="M207.129 151.837C212.494 148.837 220.623 143.305 225.188 136.685" stroke="#A15842" stroke-width="4" stroke-miterlimit="10" stroke-linecap="round"/>
    <path d="M213.358 161.187C221.15 156.898 228.011 151.239 233.577 144.513" stroke="#A15842" stroke-width="4" stroke-miterlimit="10" stroke-linecap="round"/>
    <path d="M224.191 167.852C227.972 165.157 233.171 160.217 237.557 154.536" stroke="#A15842" stroke-width="4" stroke-miterlimit="10" stroke-linecap="round"/>
</svg>
