<svg width="701" height="682" viewBox="0 0 701 682" fill="none" xmlns="http://www.w3.org/2000/svg">
    <path d="M151.895 4C126.163 4 102.46 5.05423 79.0062 16.8889C57.3948 27.7938 40.4489 45.858 27.2285 65.8889C13.8479 86.1624 5.99247 112.163 4.33957 136.222C1.97502 170.64 12.1429 197.716 29.1173 227.111C75.0596 306.67 156.791 343.503 245.895 349.111C304.923 352.826 356.748 343.049 411.895 321.778C457.589 304.153 506.041 284.291 543.673 252.222C584.137 217.739 574.158 167.695 524.895 147.333C459.045 120.115 405.816 187.198 402.117 248.222C400.389 276.74 405.801 303.505 424.006 325.889C456.665 366.044 501.278 392.409 541.228 424.444C570.708 448.083 607.129 471.347 630.673 501.444C671.594 553.755 700.972 620.586 695.451 688C693.349 713.658 687.048 729.441 661.006 733.111C648.814 734.829 636.174 734 623.895 734" stroke="white" stroke-width="8" stroke-linecap="round"/>
</svg>